<svg width="23" height="23" viewBox="0 0 23 23" fill="none" xmlns="http://www.w3.org/2000/svg">
<path d="M5.77051 7.33337C6.63346 7.33337 7.33301 6.63382 7.33301 5.77087C7.33301 4.90793 6.63346 4.20837 5.77051 4.20837C4.90756 4.20837 4.20801 4.90793 4.20801 5.77087C4.20801 6.63382 4.90756 7.33337 5.77051 7.33337Z" fill="#66FF66"/>
<path d="M4.20801 9.41667C4.20801 8.84137 4.67438 8.375 5.24967 8.375H6.29134C6.86663 8.375 7.33301 8.84136 7.33301 9.41667V17.75C7.33301 18.3253 6.86663 18.7917 6.29134 18.7917H5.24967C4.67438 18.7917 4.20801 18.3253 4.20801 17.75V9.41667Z" fill="#66FF66"/>
<path d="M10.4582 18.7917H11.4998C12.0751 18.7917 12.5415 18.3253 12.5415 17.75V13.0625C12.5415 11.5 15.6665 10.4583 15.6665 12.5417V17.7504C15.6665 18.3257 16.1329 18.7917 16.7082 18.7917H17.7498C18.3251 18.7917 18.7915 18.3253 18.7915 17.75V11.5C18.7915 9.41667 17.229 8.375 15.1457 8.375C13.0623 8.375 12.5415 9.9375 12.5415 9.9375V9.41667C12.5415 8.84136 12.0751 8.375 11.4998 8.375H10.4582C9.88286 8.375 9.4165 8.84137 9.4165 9.41667V17.75C9.4165 18.3253 9.88286 18.7917 10.4582 18.7917Z" fill="#66FF66"/>
<path fill-rule="evenodd" clip-rule="evenodd" d="M19.8332 0.041687C21.5591 0.041687 22.9582 1.4408 22.9582 3.16669V19.8334C22.9582 21.5593 21.5591 22.9584 19.8332 22.9584H3.1665C1.44062 22.9584 0.0415039 21.5593 0.0415039 19.8334V3.16669C0.0415039 1.4408 1.44062 0.041687 3.1665 0.041687H19.8332ZM19.8332 2.12502C20.4085 2.12502 20.8748 2.5914 20.8748 3.16669V19.8334C20.8748 20.4087 20.4085 20.875 19.8332 20.875H3.1665C2.59121 20.875 2.12484 20.4087 2.12484 19.8334V3.16669C2.12484 2.5914 2.59121 2.12502 3.1665 2.12502H19.8332Z" fill="#66FF66"/>
</svg>
